<svg width="20" height="20" viewBox="0 0 20 20" fill="none" xmlns="http://www.w3.org/2000/svg">
<mask id="mask0_7554_55446" style="mask-type:alpha" maskUnits="userSpaceOnUse" x="2" y="0" width="16" height="20">
<path d="M12.8999 8.93221C13.612 8.3482 14.1266 7.55881 14.3736 6.67166C14.6207 5.78452 14.5881 4.84277 14.2804 3.97479C13.9727 3.10681 13.4048 2.35483 12.6542 1.82136C11.9036 1.28789 11.0067 0.998877 10.0858 0.993723C9.16488 0.988568 8.2648 1.26752 7.50823 1.79256C6.75166 2.31759 6.1754 3.06316 5.85801 3.92764C5.54062 4.79212 5.49754 5.73345 5.73463 6.62331C5.97173 7.51317 6.47747 8.30826 7.18292 8.90021C5.70905 9.47015 4.44177 10.4721 3.54722 11.7748C2.65267 13.0774 2.17259 14.62 2.16992 16.2002V19.0002H3.82292V16.2002C3.82292 14.562 4.47371 12.9908 5.63212 11.8324C6.79053 10.674 8.36168 10.0232 9.99992 10.0232C11.6382 10.0232 13.2093 10.674 14.3677 11.8324C15.5261 12.9908 16.1769 14.562 16.1769 16.2002V19.0002H17.8299V16.2002C17.8273 14.6351 17.3564 13.1066 16.4778 11.8113C15.5992 10.5161 14.3531 9.51339 12.8999 8.93221ZM10.0629 2.66621C10.6186 2.66641 11.1618 2.83138 11.6238 3.14027C12.0858 3.44916 12.4458 3.88809 12.6583 4.40156C12.8708 4.91504 12.9263 5.48001 12.8178 6.02503C12.7093 6.57005 12.4416 7.07065 12.0485 7.46353C11.6555 7.85642 11.1548 8.12395 10.6098 8.23229C10.0647 8.34063 9.49975 8.28493 8.98635 8.07222C8.47295 7.85951 8.03415 7.49934 7.72542 7.03726C7.4167 6.57518 7.25192 6.03193 7.25192 5.47621C7.25298 4.73111 7.54951 4.01683 8.07647 3.49006C8.60344 2.96328 9.31781 2.66701 10.0629 2.66621Z" fill="#282B3E"/>
</mask>
<g mask="url(#mask0_7554_55446)">
<rect width="20" height="20" fill="white"/>
</g>
</svg>
