<svg width="19" height="19" viewBox="0 0 19 19" fill="none" xmlns="http://www.w3.org/2000/svg">
<path fill-rule="evenodd" clip-rule="evenodd" d="M16.2593 3.34362C14.9832 2.06679 13.3573 1.19676 11.587 0.843419C9.81675 0.490076 7.98144 0.669267 6.31293 1.35836C4.64441 2.04745 3.21752 3.21554 2.21246 4.71509C1.20741 6.21465 0.669271 7.97841 0.666016 9.78362V18.917H9.79935C11.6022 18.9137 13.3637 18.377 14.862 17.3745C16.3604 16.3719 17.5285 14.9483 18.2192 13.2831C18.91 11.6179 19.0925 9.78547 18.7437 8.01672C18.395 6.24796 17.5305 4.62199 16.2593 3.34362ZM14.846 14.8503C14.1859 15.5167 13.3996 16.045 12.5332 16.4044C11.6667 16.7638 10.7374 16.9471 9.79935 16.9436H2.66602V9.78362C2.67018 8.61177 2.96297 7.459 3.51852 6.4272C4.07406 5.39541 4.87525 4.51636 5.85125 3.86779C6.82725 3.21921 7.94801 2.82106 9.11445 2.70856C10.2809 2.59605 11.4571 2.77264 12.5391 3.22273C13.621 3.67281 14.5755 4.38251 15.318 5.28911C16.0605 6.19571 16.5682 7.27127 16.7963 8.42071C17.0243 9.57016 16.9657 10.7581 16.6255 11.8795C16.2854 13.0009 15.6742 14.0212 14.846 14.8503ZM10.7993 12.5237H8.79932V14.1903H10.7993V12.5237ZM9.20277 5.59125C9.56425 5.51662 9.93691 5.51403 10.2994 5.58362C10.8756 5.6798 11.4074 5.95337 11.8207 6.36619C12.234 6.779 12.5082 7.31049 12.6051 7.88657C12.7019 8.46264 12.6167 9.05458 12.3611 9.57987C12.1055 10.1052 11.6924 10.5376 11.1794 10.817C11.0848 10.866 11.0034 10.937 10.9419 11.024C10.8805 11.111 10.8407 11.2114 10.8261 11.317V11.3903H8.82606V11.317C8.82933 10.8505 8.9603 10.3939 9.20476 9.99667C9.44922 9.59942 9.79782 9.27673 10.2127 9.06362C10.3629 8.98187 10.4832 8.85452 10.5563 8.69995C10.6294 8.54537 10.6515 8.37156 10.6194 8.20362C10.5904 8.03741 10.5108 7.8842 10.3914 7.76489C10.2721 7.64559 10.1189 7.56599 9.95272 7.53695H9.79939C9.69124 7.53338 9.58347 7.5516 9.4825 7.59053C9.38153 7.62946 9.28943 7.68832 9.21167 7.76358C9.13392 7.83885 9.07211 7.92899 9.02991 8.02864C8.98771 8.12828 8.966 8.2354 8.96606 8.34362H6.96606C6.96476 8.16698 6.98039 7.99062 7.01272 7.81695C7.0815 7.45431 7.22114 7.1088 7.42363 6.8002C7.62612 6.4916 7.8875 6.22597 8.19279 6.01852C8.49808 5.81107 8.84129 5.66587 9.20277 5.59125Z" fill="white"/>
</svg>
