<svg width="18" height="18" viewBox="0 0 18 18" fill="none" xmlns="http://www.w3.org/2000/svg">
<path fill-rule="evenodd" clip-rule="evenodd" d="M8.98 0C7.20364 0 5.46719 0.526837 3.99029 1.51387C2.51339 2.5009 1.36241 3.90378 0.682927 5.54504C0.00344881 7.18631 -0.173995 8.99223 0.173041 10.7344C0.520077 12.4765 1.376 14.0766 2.63254 15.3322C3.88909 16.5878 5.48979 17.4425 7.23218 17.7883C8.97457 18.134 10.7804 17.9552 12.4211 17.2745C14.0619 16.5938 15.4639 15.4418 16.4498 13.9642C17.4358 12.4865 17.9613 10.7497 17.96 8.97333C17.9565 6.59339 17.009 4.31203 15.3255 2.62977C13.642 0.947519 11.3599 0.00176292 8.98 0ZM8.98 16.3067C7.5296 16.3067 6.11178 15.8766 4.90582 15.0708C3.69986 14.265 2.75993 13.1197 2.20488 11.7797C1.64984 10.4397 1.50462 8.9652 1.78758 7.54267C2.07053 6.12014 2.76897 4.81347 3.79455 3.78788C4.82014 2.7623 6.12681 2.06387 7.54934 1.78091C8.97187 1.49795 10.4464 1.64317 11.7863 2.19822C13.1263 2.75326 14.2716 3.69319 15.0774 4.89915C15.8832 6.10511 16.3133 7.52294 16.3133 8.97333C16.3133 10.9183 15.5407 12.7835 14.1655 14.1588C12.7902 15.534 10.9249 16.3067 8.98 16.3067ZM9.81999 7.54639H8.15332V13.0064H9.81999V7.54639ZM8.15332 4.69336H9.81999V6.30669H8.15332V4.69336Z" fill="#282B3E"/>
</svg>
