<svg width="119" height="22" viewBox="0 0 119 22" fill="none" xmlns="http://www.w3.org/2000/svg">
<path fill-rule="evenodd" clip-rule="evenodd" d="M0 3.99981L4 0V18.0002L0 22V3.99981ZM12 0L8 3.99981V22L12 18.0002V0ZM20 0L16 3.99981V22L20 18.0002V0Z" fill="#00A657"/>
<mask id="mask0" mask-type="alpha" maskUnits="userSpaceOnUse" x="0" y="0" width="20" height="22">
<path fill-rule="evenodd" clip-rule="evenodd" d="M0 3.99981L4 0V18.0002L0 22V3.99981ZM12 0L8 3.99981V22L12 18.0002V0ZM20 0L16 3.99981V22L20 18.0002V0Z" fill="white"/>
</mask>
<g mask="url(#mask0)">
<rect width="20" height="22" fill="#00A758"/>
</g>
<path fill-rule="evenodd" clip-rule="evenodd" d="M98.9847 1.97341C98.1071 1.97341 97.3728 2.69817 97.3728 3.58881C97.3728 4.47946 98.1071 5.22543 98.9847 5.22543C99.8413 5.22543 100.576 4.47946 100.576 3.58881C100.576 2.69817 99.8413 1.97341 98.9847 1.97341ZM113.956 8.9539C115.486 8.9539 116.363 10.2796 116.363 11.6881H111.304C111.344 10.3624 112.487 8.9539 113.956 8.9539ZM114.139 16.825C112.569 16.825 111.243 15.4997 111.222 13.6353H118.995C119.118 8.91252 116.996 6.90308 113.976 6.90308C110.814 6.90308 108.631 9.51312 108.631 12.9515C108.631 16.5141 110.651 19 113.895 19C115.955 19 117.73 17.9021 118.648 16.535L117.078 15.0437C116.547 16.0175 115.323 16.825 114.139 16.825ZM97.679 18.7308H100.29V7.17226H97.679V18.7308ZM105.858 7.17226V4.93539C105.858 3.94111 106.511 3.34051 107.307 3.34051C107.817 3.34051 108.347 3.54743 108.694 3.7547L109.489 1.76614C108.938 1.4761 108.021 1.16554 106.918 1.16554C104.552 1.16554 103.349 2.88457 103.349 4.79037V7.17226H101.82V9.28497H103.349V18.7308H105.858V9.28497H108.245L108.837 7.17226H105.858ZM92.3963 18.7308H94.9056V1L92.3963 3.52691V18.7308ZM64.1304 15.3752C63.518 16.1625 62.5387 16.9495 61.3557 16.9495C60.3559 16.9495 59.5807 16.3281 59.5807 15.4166C59.5807 14.1322 60.8864 13.5939 62.376 13.4071L64.0893 13.2002H64.1304V15.3752ZM62.5185 6.90308C60.4987 6.90308 58.9484 7.71096 58.0713 8.87113L59.4992 10.5902C59.9479 9.86541 61.1515 8.9539 62.3962 8.9539C63.4776 8.9539 64.1914 9.51312 64.1914 10.2796C64.1914 10.9011 63.865 11.4189 62.947 11.5017L62.0085 11.6053C59.6013 11.8745 57.1328 12.8483 57.1328 15.5198C57.1328 17.7157 58.7854 19 60.7843 19C62.5185 19 63.4978 18.1507 64.1099 17.426V18.7308H66.6394V10.5488C66.6394 8.27053 65.1295 6.90308 62.5185 6.90308ZM87.1165 15.3133C86.4023 16.1208 85.4844 16.7631 84.5051 16.7631C83.3217 16.7631 82.7504 15.8311 82.7504 14.4845V7.17226H80.2411V15.3133C80.2411 18.213 82.2811 19 83.7498 19C85.2189 19 86.341 18.1507 87.0346 17.4879V18.7308H89.6254V7.17226H87.1165V15.3133ZM75.104 6.90308C73.6353 6.90308 72.2885 7.64871 71.3911 8.47745V7.17226H68.8818V18.7308H71.3911V10.4246C71.9621 9.88593 73.1866 9.05754 74.1453 9.05754C75.3082 9.05754 75.7774 10.031 75.7774 11.1703V18.7308H78.2864V10.5074C78.2864 7.69044 76.4505 6.90308 75.104 6.90308ZM47.6505 10.5803H47.6094L42.958 2.68826H40V18.7308H42.7336V7.36963H42.7744L47.5889 15.4484L52.3831 7.36963H52.4239V18.7308H55.1781V2.68826H52.2814L47.6505 10.5803Z" fill="#FEFEFE"/>
<mask id="mask1" mask-type="alpha" maskUnits="userSpaceOnUse" x="40" y="1" width="79" height="18">
<path fill-rule="evenodd" clip-rule="evenodd" d="M98.9847 1.97341C98.1071 1.97341 97.3728 2.69817 97.3728 3.58881C97.3728 4.47946 98.1071 5.22543 98.9847 5.22543C99.8413 5.22543 100.576 4.47946 100.576 3.58881C100.576 2.69817 99.8413 1.97341 98.9847 1.97341ZM113.956 8.9539C115.486 8.9539 116.363 10.2796 116.363 11.6881H111.304C111.344 10.3624 112.487 8.9539 113.956 8.9539ZM114.139 16.825C112.569 16.825 111.243 15.4997 111.222 13.6353H118.995C119.118 8.91252 116.996 6.90308 113.976 6.90308C110.814 6.90308 108.631 9.51312 108.631 12.9515C108.631 16.5141 110.651 19 113.895 19C115.955 19 117.73 17.9021 118.648 16.535L117.078 15.0437C116.547 16.0175 115.323 16.825 114.139 16.825ZM97.679 18.7308H100.29V7.17226H97.679V18.7308ZM105.858 7.17226V4.93539C105.858 3.94111 106.511 3.34051 107.307 3.34051C107.817 3.34051 108.347 3.54743 108.694 3.7547L109.489 1.76614C108.938 1.4761 108.021 1.16554 106.918 1.16554C104.552 1.16554 103.349 2.88457 103.349 4.79037V7.17226H101.82V9.28497H103.349V18.7308H105.858V9.28497H108.245L108.837 7.17226H105.858ZM92.3963 18.7308H94.9056V1L92.3963 3.52691V18.7308ZM64.1304 15.3752C63.518 16.1625 62.5387 16.9495 61.3557 16.9495C60.3559 16.9495 59.5807 16.3281 59.5807 15.4166C59.5807 14.1322 60.8864 13.5939 62.376 13.4071L64.0893 13.2002H64.1304V15.3752ZM62.5185 6.90308C60.4987 6.90308 58.9484 7.71096 58.0713 8.87113L59.4992 10.5902C59.9479 9.86541 61.1515 8.9539 62.3962 8.9539C63.4776 8.9539 64.1914 9.51312 64.1914 10.2796C64.1914 10.9011 63.865 11.4189 62.947 11.5017L62.0085 11.6053C59.6013 11.8745 57.1328 12.8483 57.1328 15.5198C57.1328 17.7157 58.7854 19 60.7843 19C62.5185 19 63.4978 18.1507 64.1099 17.426V18.7308H66.6394V10.5488C66.6394 8.27053 65.1295 6.90308 62.5185 6.90308ZM87.1165 15.3133C86.4023 16.1208 85.4844 16.7631 84.5051 16.7631C83.3217 16.7631 82.7504 15.8311 82.7504 14.4845V7.17226H80.2411V15.3133C80.2411 18.213 82.2811 19 83.7498 19C85.2189 19 86.341 18.1507 87.0346 17.4879V18.7308H89.6254V7.17226H87.1165V15.3133ZM75.104 6.90308C73.6353 6.90308 72.2885 7.64871 71.3911 8.47745V7.17226H68.8818V18.7308H71.3911V10.4246C71.9621 9.88593 73.1866 9.05754 74.1453 9.05754C75.3082 9.05754 75.7774 10.031 75.7774 11.1703V18.7308H78.2864V10.5074C78.2864 7.69044 76.4505 6.90308 75.104 6.90308ZM47.6505 10.5803H47.6094L42.958 2.68826H40V18.7308H42.7336V7.36963H42.7744L47.5889 15.4484L52.3831 7.36963H52.4239V18.7308H55.1781V2.68826H52.2814L47.6505 10.5803Z" fill="#FEFEFE"/>
</mask>
<g mask="url(#mask1)">
</g>
</svg>
