<svg width="88" height="24" viewBox="0 0 88 24" fill="none" xmlns="http://www.w3.org/2000/svg">
<path d="M78.8549 15.2377C78.8549 17.2419 80.3195 18.7064 82.0924 18.7064C83.4028 18.7064 84.7902 17.8585 85.3298 16.7794L87.1027 18.3981C86.1006 19.8626 84.0965 21.0959 81.8611 21.0959C78.2383 21.0959 76.0029 18.3981 76.0029 14.4669C76.0029 10.6899 78.3925 7.83789 81.9382 7.83789C85.2527 7.83789 87.6423 9.99618 87.4881 15.1606H78.8549V15.2377ZM84.4819 13.1565C84.4819 11.6149 83.4799 10.1503 81.7841 10.1503C80.1653 10.1503 78.932 11.692 78.8549 13.1565H84.4819Z" fill="white"/>
<path d="M75.5398 10.5358H72.919V20.8647H70.144V10.5358H68.4482V8.22333H70.144V5.60255C70.144 3.52135 71.4544 1.67139 74.0752 1.67139C75.3085 1.67139 76.3106 1.97971 76.9272 2.28804L76.0793 4.44632C75.6939 4.21508 75.0773 3.98384 74.5377 3.98384C73.6898 3.98384 72.919 4.60049 72.919 5.75671V8.22333H76.2335L75.5398 10.5358Z" fill="white"/>
<path d="M65.2885 2.51904C66.2135 2.51904 67.0614 3.28986 67.0614 4.29192C67.0614 5.29398 66.2135 6.0648 65.2885 6.0648C64.2864 6.0648 63.5156 5.2169 63.5156 4.29192C63.5156 3.36694 64.2864 2.51904 65.2885 2.51904ZM66.7531 20.7874H63.901V8.22308H66.7531V20.7874Z" fill="white"/>
<path d="M60.7408 20.7874H57.9658V4.21488L60.7408 1.43994V20.7874Z" fill="white"/>
<path d="M52.1839 8.22314H54.9588V20.7875H52.1068V19.4C51.336 20.0937 50.1027 21.0187 48.484 21.0187C46.8653 21.0187 44.6299 20.1708 44.6299 17.0105V8.22314H47.4048V16.1626C47.4048 17.6271 48.0215 18.6292 49.3319 18.6292C50.411 18.6292 51.4131 17.9354 52.1839 17.0875V8.22314Z" fill="white"/>
<path d="M34.7642 20.7874H31.9893V8.22312H34.7642V9.61059C35.7663 8.68561 37.2308 7.91479 38.8495 7.91479C40.3141 7.91479 42.3953 8.76269 42.3953 11.846V20.7874H39.6203V12.5397C39.6203 11.3064 39.0808 10.2272 37.8475 10.2272C36.7683 10.2272 35.4579 11.1522 34.7642 11.6918V20.7874Z" fill="white"/>
<path d="M26.6701 20.7875V19.4C25.9763 20.1708 24.8972 21.0958 22.9702 21.0958C20.7348 21.0958 18.9619 19.7084 18.9619 17.3188C18.9619 14.3897 21.6598 13.3106 24.3576 13.0793L25.3597 13.0023C26.3618 12.9252 26.7472 12.3856 26.7472 11.6919C26.7472 10.844 25.9763 10.2273 24.743 10.2273C23.3556 10.2273 22.0452 11.2294 21.5056 12.0002L19.964 10.1502C20.966 8.91692 22.6618 7.99194 24.8972 7.99194C27.7492 7.99194 29.445 9.4565 29.445 12.0002V20.9417H26.6701V20.7875ZM26.6701 14.7751L24.743 15.0064C23.1243 15.2376 21.6598 15.7772 21.6598 17.1647C21.6598 18.1667 22.5077 18.8605 23.5868 18.8605C24.8972 18.8605 25.9763 18.0126 26.6701 17.1647V14.7751Z" fill="white"/>
<path d="M3.08327 20.7876H0V3.29004H3.23743L8.47898 11.9232L13.5664 3.29004H16.8038V20.7876H13.7205V8.45451H13.6434L8.32482 17.2418L3.08327 8.45451V20.7876Z" fill="white"/>
</svg>
