<svg width="20" height="20" viewBox="0 0 20 20" fill="none" xmlns="http://www.w3.org/2000/svg">
<mask id="mask0_7552_57919" style="mask-type:alpha" maskUnits="userSpaceOnUse" x="1" y="1" width="18" height="18">
<path d="M12.2 16.993C13.3241 15.1326 13.9371 13.0083 13.977 10.835H17.28C17.1168 12.2418 16.5504 13.5715 15.6492 14.664C14.7479 15.7565 13.5502 16.5653 12.2 16.993ZM2.72 10.835H5.91C5.95132 12.9875 6.55237 15.0923 7.654 16.942C6.33815 16.495 5.17607 15.6839 4.30272 14.6029C3.42936 13.522 2.88055 12.2154 2.72 10.835ZM7.654 3.058C6.55237 4.90775 5.95132 7.01245 5.91 9.165H2.72C2.88055 7.7846 3.42936 6.47805 4.30272 5.39706C5.17607 4.31607 6.33815 3.50499 7.654 3.058ZM7.583 9.165C7.748 6.109 8.794 3.805 9.941 2.994C11.089 3.805 12.135 6.109 12.299 9.165H7.583ZM9.941 17.006C8.794 16.195 7.748 13.891 7.583 10.835H12.3C12.136 13.891 11.09 16.195 9.942 17.006H9.941ZM17.28 9.165H13.973C13.9343 6.99206 13.3227 4.86784 12.2 3.007C13.5502 3.4347 14.7479 4.24347 15.6492 5.33598C16.5504 6.42848 17.1168 7.75817 17.28 9.165ZM10 1C8.21997 1 6.47991 1.52784 4.99987 2.51677C3.51983 3.50571 2.36628 4.91131 1.68509 6.55585C1.0039 8.20038 0.82567 10.01 1.17294 11.7558C1.5202 13.5016 2.37737 15.1053 3.63604 16.364C4.89472 17.6226 6.49836 18.4798 8.24419 18.8271C9.99002 19.1743 11.7996 18.9961 13.4442 18.3149C15.0887 17.6337 16.4943 16.4802 17.4832 15.0001C18.4722 13.5201 19 11.78 19 10C18.9974 7.61386 18.0483 5.32622 16.361 3.63896C14.6738 1.95171 12.3861 1.00265 10 1Z" fill="#282B3E"/>
</mask>
<g mask="url(#mask0_7552_57919)">
<rect width="20" height="20" fill="#282B3E"/>
</g>
</svg>
