<svg width="20" height="20" viewBox="0 0 20 20" fill="none" xmlns="http://www.w3.org/2000/svg">
<path d="M18.1069 11.7352C17.4849 11.1365 16.6857 10.7407 15.8205 10.603C14.9553 10.4653 14.0673 10.5924 13.2802 10.9667L8.68023 6.5238C9.02015 5.84796 9.16107 5.0944 9.0875 4.34599C9.01393 3.59759 8.72872 2.88333 8.26323 2.28177C7.79773 1.68021 7.16999 1.21465 6.44904 0.936289C5.72808 0.657925 4.94184 0.577542 4.17678 0.703979C3.41172 0.830415 2.69747 1.15877 2.11258 1.65295C1.5277 2.14712 1.09483 2.78796 0.861584 3.50499C0.628338 4.22203 0.603749 4.98748 0.79052 5.71718C0.977292 6.44688 1.36819 7.11255 1.92023 7.64099L12.1269 17.5277C12.9225 18.2984 14.0017 18.7314 15.1269 18.7314C16.2521 18.7314 17.3312 18.2984 18.1269 17.5277C18.9225 16.757 19.3695 15.7117 19.3695 14.6218C19.3695 13.5318 18.9225 12.4865 18.1269 11.7158L18.1069 11.7352ZM16.6802 16.1329C16.2607 16.5355 15.6941 16.7614 15.1036 16.7614C14.513 16.7614 13.9464 16.5355 13.5269 16.1329L3.34689 6.27195C3.04168 5.97792 2.8307 5.60471 2.73934 5.19725C2.64798 4.78978 2.68012 4.36542 2.83191 3.97524C2.98371 3.58506 3.24867 3.24568 3.59492 2.99796C3.94117 2.75023 4.35395 2.60471 4.78359 2.57891C5.21322 2.5531 5.6414 2.64812 6.01659 2.85252C6.39178 3.05692 6.69799 3.36199 6.89838 3.73102C7.09876 4.10005 7.18478 4.51732 7.14608 4.93259C7.10737 5.34787 6.9456 5.74346 6.68023 6.07177L6.13356 6.71754L13.0536 13.4723L13.7202 12.9428C14.1635 12.6103 14.7202 12.4527 15.2786 12.5015C15.8369 12.5502 16.3555 12.8018 16.7303 13.2057C17.105 13.6096 17.3082 14.1358 17.2989 14.6788C17.2896 15.2218 17.0686 15.7412 16.6802 16.1329Z" fill="#282B3E"/>
</svg>
