<svg width="20" height="20" viewBox="0 0 20 20" fill="none" xmlns="http://www.w3.org/2000/svg">
<path fill-rule="evenodd" clip-rule="evenodd" d="M16.2598 3.23871C14.9837 2.00191 13.3578 1.15915 11.5875 0.816885C9.81723 0.474618 7.98193 0.648192 6.31342 1.31568C4.6449 1.98318 3.21801 3.11465 2.21295 4.5672C1.2079 6.01975 0.669759 7.72822 0.666504 9.47685V18.3239H9.79984C11.6026 18.3207 13.3642 17.8009 14.8625 16.8297C16.3609 15.8586 17.529 14.4797 18.2197 12.8666C18.9105 11.2536 19.093 9.47864 18.7442 7.76533C18.3954 6.05202 17.531 4.47701 16.2598 3.23871ZM14.8465 14.3847C14.1863 15.0302 13.4001 15.542 12.5337 15.8901C11.6672 16.2382 10.7379 16.4158 9.79984 16.4124H2.6665V9.47685C2.67066 8.34173 2.96346 7.2251 3.519 6.22564C4.07455 5.22619 4.87574 4.3747 5.85174 3.74645C6.82774 3.1182 7.9485 2.73254 9.11494 2.62356C10.2814 2.51458 11.4576 2.68564 12.5395 3.12161C13.6215 3.55758 14.5759 4.24504 15.3185 5.12322C16.061 6.0014 16.5687 7.04325 16.7967 8.15666C17.0248 9.27008 16.9662 10.4208 16.626 11.507C16.2859 12.5933 15.6747 13.5816 14.8465 14.3847ZM10.7998 12.131H8.7998V13.7454H10.7998V12.131ZM9.20326 5.41589C9.56474 5.3436 9.93739 5.34109 10.2999 5.4085C10.8761 5.50167 11.4079 5.76666 11.8212 6.16654C12.2345 6.56641 12.5087 7.08124 12.6056 7.63926C12.7024 8.19727 12.6171 8.77066 12.3616 9.27948C12.106 9.7883 11.6929 10.2072 11.1799 10.4778C11.0853 10.5253 11.0039 10.5941 10.9424 10.6783C10.8809 10.7626 10.8412 10.8599 10.8265 10.9621V11.0332H8.82655V10.9621C8.82982 10.5103 8.96079 10.068 9.20525 9.68322C9.44971 9.29842 9.79831 8.98585 10.2132 8.77942C10.3634 8.70023 10.4837 8.57687 10.5568 8.42714C10.6299 8.27741 10.652 8.10905 10.6199 7.94637C10.5908 7.78537 10.5112 7.63697 10.3919 7.5214C10.2726 7.40583 10.1194 7.32873 9.95321 7.3006H9.79988C9.69172 7.29714 9.58395 7.31479 9.48299 7.3525C9.38202 7.39022 9.28992 7.44722 9.21216 7.52013C9.13441 7.59303 9.07259 7.68035 9.0304 7.77687C8.9882 7.8734 8.96649 7.97716 8.96655 8.08199H6.96655C6.96525 7.91088 6.98088 7.74005 7.01321 7.57183C7.08199 7.22055 7.22163 6.88587 7.42412 6.58695C7.62661 6.28802 7.88799 6.03071 8.19328 5.82977C8.49857 5.62882 8.84178 5.48818 9.20326 5.41589Z" fill="white"/>
</svg>
